<mxfile host="app.diagrams.net" modified="2021-07-28T21:33:35.780Z" agent="5.0 (Windows NT 10.0; Win64; x64) AppleWebKit/537.36 (KHTML, like Gecko) Chrome/92.0.4515.107 Safari/537.36" etag="jdpDLsb1HEdrsf4SSbrd" version="14.9.2" type="github">
  <diagram id="pq2NcOKdOZl03fj5JtdS" name="Page-1">
    <mxGraphModel dx="1865" dy="547" grid="1" gridSize="10" guides="1" tooltips="1" connect="1" arrows="1" fold="1" page="1" pageScale="1" pageWidth="827" pageHeight="1169" math="0" shadow="0">
      <root>
        <mxCell id="0" />
        <mxCell id="1" parent="0" />
        <mxCell id="Ux6Qge8Gb2Gr5K-9S6YE-1" value="Ciente" style="whiteSpace=wrap;html=1;align=center;" vertex="1" parent="1">
          <mxGeometry x="150" y="90" width="100" height="40" as="geometry" />
        </mxCell>
        <mxCell id="Ux6Qge8Gb2Gr5K-9S6YE-28" style="edgeStyle=orthogonalEdgeStyle;rounded=0;orthogonalLoop=1;jettySize=auto;html=1;exitX=1;exitY=0;exitDx=0;exitDy=0;" edge="1" parent="1" source="Ux6Qge8Gb2Gr5K-9S6YE-2">
          <mxGeometry relative="1" as="geometry">
            <mxPoint x="150" y="130" as="targetPoint" />
          </mxGeometry>
        </mxCell>
        <mxCell id="Ux6Qge8Gb2Gr5K-9S6YE-2" value="CUI" style="ellipse;whiteSpace=wrap;html=1;align=center;fontStyle=4;" vertex="1" parent="1">
          <mxGeometry x="30" y="190" width="100" height="40" as="geometry" />
        </mxCell>
        <mxCell id="Ux6Qge8Gb2Gr5K-9S6YE-27" style="edgeStyle=orthogonalEdgeStyle;rounded=0;orthogonalLoop=1;jettySize=auto;html=1;exitX=1;exitY=0.5;exitDx=0;exitDy=0;entryX=0;entryY=0.75;entryDx=0;entryDy=0;" edge="1" parent="1" source="Ux6Qge8Gb2Gr5K-9S6YE-3" target="Ux6Qge8Gb2Gr5K-9S6YE-1">
          <mxGeometry relative="1" as="geometry" />
        </mxCell>
        <mxCell id="Ux6Qge8Gb2Gr5K-9S6YE-3" value="Nombre" style="ellipse;whiteSpace=wrap;html=1;align=center;" vertex="1" parent="1">
          <mxGeometry x="10" y="100" width="100" height="40" as="geometry" />
        </mxCell>
        <mxCell id="Ux6Qge8Gb2Gr5K-9S6YE-25" style="edgeStyle=orthogonalEdgeStyle;rounded=0;orthogonalLoop=1;jettySize=auto;html=1;exitX=1;exitY=0.5;exitDx=0;exitDy=0;entryX=0.25;entryY=0;entryDx=0;entryDy=0;" edge="1" parent="1" source="Ux6Qge8Gb2Gr5K-9S6YE-4" target="Ux6Qge8Gb2Gr5K-9S6YE-1">
          <mxGeometry relative="1" as="geometry" />
        </mxCell>
        <mxCell id="Ux6Qge8Gb2Gr5K-9S6YE-4" value="Apellidos" style="ellipse;whiteSpace=wrap;html=1;align=center;" vertex="1" parent="1">
          <mxGeometry x="40" y="40" width="100" height="40" as="geometry" />
        </mxCell>
        <mxCell id="Ux6Qge8Gb2Gr5K-9S6YE-29" style="edgeStyle=orthogonalEdgeStyle;rounded=0;orthogonalLoop=1;jettySize=auto;html=1;exitX=0.5;exitY=0;exitDx=0;exitDy=0;" edge="1" parent="1" source="Ux6Qge8Gb2Gr5K-9S6YE-5" target="Ux6Qge8Gb2Gr5K-9S6YE-1">
          <mxGeometry relative="1" as="geometry" />
        </mxCell>
        <mxCell id="Ux6Qge8Gb2Gr5K-9S6YE-5" value="Direccion" style="ellipse;whiteSpace=wrap;html=1;align=center;" vertex="1" parent="1">
          <mxGeometry x="150" y="190" width="100" height="40" as="geometry" />
        </mxCell>
        <mxCell id="Ux6Qge8Gb2Gr5K-9S6YE-26" style="edgeStyle=orthogonalEdgeStyle;rounded=0;orthogonalLoop=1;jettySize=auto;html=1;exitX=0.5;exitY=1;exitDx=0;exitDy=0;entryX=0.64;entryY=-0.015;entryDx=0;entryDy=0;entryPerimeter=0;" edge="1" parent="1" source="Ux6Qge8Gb2Gr5K-9S6YE-6" target="Ux6Qge8Gb2Gr5K-9S6YE-1">
          <mxGeometry relative="1" as="geometry" />
        </mxCell>
        <mxCell id="Ux6Qge8Gb2Gr5K-9S6YE-6" value="Fecha de Nacimiento" style="ellipse;whiteSpace=wrap;html=1;align=center;" vertex="1" parent="1">
          <mxGeometry x="180" y="10" width="100" height="40" as="geometry" />
        </mxCell>
        <mxCell id="Ux6Qge8Gb2Gr5K-9S6YE-7" value="Producto" style="whiteSpace=wrap;html=1;align=center;" vertex="1" parent="1">
          <mxGeometry x="650" y="100" width="100" height="40" as="geometry" />
        </mxCell>
        <mxCell id="Ux6Qge8Gb2Gr5K-9S6YE-30" style="edgeStyle=orthogonalEdgeStyle;rounded=0;orthogonalLoop=1;jettySize=auto;html=1;exitX=0.5;exitY=1;exitDx=0;exitDy=0;entryX=0.25;entryY=0;entryDx=0;entryDy=0;" edge="1" parent="1" source="Ux6Qge8Gb2Gr5K-9S6YE-8" target="Ux6Qge8Gb2Gr5K-9S6YE-7">
          <mxGeometry relative="1" as="geometry" />
        </mxCell>
        <mxCell id="Ux6Qge8Gb2Gr5K-9S6YE-8" value="Nombre" style="ellipse;whiteSpace=wrap;html=1;align=center;" vertex="1" parent="1">
          <mxGeometry x="610" y="20" width="100" height="40" as="geometry" />
        </mxCell>
        <mxCell id="Ux6Qge8Gb2Gr5K-9S6YE-31" style="edgeStyle=orthogonalEdgeStyle;rounded=0;orthogonalLoop=1;jettySize=auto;html=1;exitX=0;exitY=1;exitDx=0;exitDy=0;entryX=0.5;entryY=0;entryDx=0;entryDy=0;" edge="1" parent="1" source="Ux6Qge8Gb2Gr5K-9S6YE-9" target="Ux6Qge8Gb2Gr5K-9S6YE-7">
          <mxGeometry relative="1" as="geometry" />
        </mxCell>
        <mxCell id="Ux6Qge8Gb2Gr5K-9S6YE-9" value="Codigo" style="ellipse;whiteSpace=wrap;html=1;align=center;fontStyle=4;" vertex="1" parent="1">
          <mxGeometry x="760" y="20" width="100" height="40" as="geometry" />
        </mxCell>
        <mxCell id="Ux6Qge8Gb2Gr5K-9S6YE-32" style="edgeStyle=orthogonalEdgeStyle;rounded=0;orthogonalLoop=1;jettySize=auto;html=1;exitX=0;exitY=0.5;exitDx=0;exitDy=0;entryX=1;entryY=0.5;entryDx=0;entryDy=0;" edge="1" parent="1" source="Ux6Qge8Gb2Gr5K-9S6YE-10" target="Ux6Qge8Gb2Gr5K-9S6YE-7">
          <mxGeometry relative="1" as="geometry" />
        </mxCell>
        <mxCell id="Ux6Qge8Gb2Gr5K-9S6YE-10" value="Precio" style="ellipse;whiteSpace=wrap;html=1;align=center;" vertex="1" parent="1">
          <mxGeometry x="800" y="80" width="100" height="40" as="geometry" />
        </mxCell>
        <mxCell id="Ux6Qge8Gb2Gr5K-9S6YE-17" value="" style="edgeStyle=entityRelationEdgeStyle;fontSize=12;html=1;endArrow=ERmany;startArrow=ERmany;entryX=0;entryY=0.5;entryDx=0;entryDy=0;" edge="1" parent="1" target="Ux6Qge8Gb2Gr5K-9S6YE-7">
          <mxGeometry width="100" height="100" relative="1" as="geometry">
            <mxPoint x="250" y="110" as="sourcePoint" />
            <mxPoint x="350" y="10" as="targetPoint" />
          </mxGeometry>
        </mxCell>
        <mxCell id="Ux6Qge8Gb2Gr5K-9S6YE-19" value="Proveedor" style="whiteSpace=wrap;html=1;align=center;" vertex="1" parent="1">
          <mxGeometry x="680" y="330" width="100" height="40" as="geometry" />
        </mxCell>
        <mxCell id="Ux6Qge8Gb2Gr5K-9S6YE-20" value="" style="edgeStyle=entityRelationEdgeStyle;fontSize=12;html=1;endArrow=ERoneToMany;exitX=0.428;exitY=-0.075;exitDx=0;exitDy=0;exitPerimeter=0;entryX=0.5;entryY=1;entryDx=0;entryDy=0;startArrow=none;" edge="1" parent="1" source="Ux6Qge8Gb2Gr5K-9S6YE-37" target="Ux6Qge8Gb2Gr5K-9S6YE-7">
          <mxGeometry width="100" height="100" relative="1" as="geometry">
            <mxPoint x="500" y="330" as="sourcePoint" />
            <mxPoint x="760" y="120" as="targetPoint" />
          </mxGeometry>
        </mxCell>
        <mxCell id="Ux6Qge8Gb2Gr5K-9S6YE-35" style="edgeStyle=orthogonalEdgeStyle;rounded=0;orthogonalLoop=1;jettySize=auto;html=1;exitX=1;exitY=0.5;exitDx=0;exitDy=0;entryX=0;entryY=1;entryDx=0;entryDy=0;" edge="1" parent="1" source="Ux6Qge8Gb2Gr5K-9S6YE-21" target="Ux6Qge8Gb2Gr5K-9S6YE-19">
          <mxGeometry relative="1" as="geometry" />
        </mxCell>
        <mxCell id="Ux6Qge8Gb2Gr5K-9S6YE-21" value="NIT" style="ellipse;whiteSpace=wrap;html=1;align=center;fontStyle=4;" vertex="1" parent="1">
          <mxGeometry x="530" y="340" width="100" height="40" as="geometry" />
        </mxCell>
        <mxCell id="Ux6Qge8Gb2Gr5K-9S6YE-34" style="edgeStyle=orthogonalEdgeStyle;rounded=0;orthogonalLoop=1;jettySize=auto;html=1;exitX=1;exitY=0;exitDx=0;exitDy=0;entryX=0.5;entryY=1;entryDx=0;entryDy=0;" edge="1" parent="1" source="Ux6Qge8Gb2Gr5K-9S6YE-22" target="Ux6Qge8Gb2Gr5K-9S6YE-19">
          <mxGeometry relative="1" as="geometry" />
        </mxCell>
        <mxCell id="Ux6Qge8Gb2Gr5K-9S6YE-22" value="Nombre" style="ellipse;whiteSpace=wrap;html=1;align=center;" vertex="1" parent="1">
          <mxGeometry x="650" y="420" width="100" height="40" as="geometry" />
        </mxCell>
        <mxCell id="Ux6Qge8Gb2Gr5K-9S6YE-33" style="edgeStyle=orthogonalEdgeStyle;rounded=0;orthogonalLoop=1;jettySize=auto;html=1;exitX=0.5;exitY=0;exitDx=0;exitDy=0;entryX=1;entryY=0.25;entryDx=0;entryDy=0;" edge="1" parent="1" source="Ux6Qge8Gb2Gr5K-9S6YE-23" target="Ux6Qge8Gb2Gr5K-9S6YE-19">
          <mxGeometry relative="1" as="geometry">
            <mxPoint x="810" y="370" as="targetPoint" />
            <Array as="points">
              <mxPoint x="860" y="360" />
              <mxPoint x="780" y="360" />
            </Array>
          </mxGeometry>
        </mxCell>
        <mxCell id="Ux6Qge8Gb2Gr5K-9S6YE-23" value="Direccion" style="ellipse;whiteSpace=wrap;html=1;align=center;" vertex="1" parent="1">
          <mxGeometry x="810" y="380" width="100" height="40" as="geometry" />
        </mxCell>
        <mxCell id="Ux6Qge8Gb2Gr5K-9S6YE-36" value="Comprar" style="shape=rhombus;perimeter=rhombusPerimeter;whiteSpace=wrap;html=1;align=center;" vertex="1" parent="1">
          <mxGeometry x="370" y="90" width="120" height="60" as="geometry" />
        </mxCell>
        <mxCell id="Ux6Qge8Gb2Gr5K-9S6YE-37" value="Suministrar" style="shape=rhombus;perimeter=rhombusPerimeter;whiteSpace=wrap;html=1;align=center;" vertex="1" parent="1">
          <mxGeometry x="660" y="210" width="120" height="60" as="geometry" />
        </mxCell>
        <mxCell id="Ux6Qge8Gb2Gr5K-9S6YE-38" value="" style="edgeStyle=entityRelationEdgeStyle;fontSize=12;html=1;endArrow=none;exitX=0.428;exitY=-0.075;exitDx=0;exitDy=0;exitPerimeter=0;entryX=0.5;entryY=1;entryDx=0;entryDy=0;" edge="1" parent="1" source="Ux6Qge8Gb2Gr5K-9S6YE-19" target="Ux6Qge8Gb2Gr5K-9S6YE-37">
          <mxGeometry width="100" height="100" relative="1" as="geometry">
            <mxPoint x="722.8" y="327" as="sourcePoint" />
            <mxPoint x="700" y="140" as="targetPoint" />
          </mxGeometry>
        </mxCell>
        <mxCell id="Ux6Qge8Gb2Gr5K-9S6YE-66" style="edgeStyle=orthogonalEdgeStyle;rounded=0;orthogonalLoop=1;jettySize=auto;html=1;exitX=1;exitY=0.5;exitDx=0;exitDy=0;entryX=0.3;entryY=1;entryDx=0;entryDy=0;entryPerimeter=0;" edge="1" parent="1" source="Ux6Qge8Gb2Gr5K-9S6YE-39" target="Ux6Qge8Gb2Gr5K-9S6YE-40">
          <mxGeometry relative="1" as="geometry" />
        </mxCell>
        <mxCell id="Ux6Qge8Gb2Gr5K-9S6YE-67" style="edgeStyle=orthogonalEdgeStyle;rounded=0;orthogonalLoop=1;jettySize=auto;html=1;exitX=0.5;exitY=0;exitDx=0;exitDy=0;entryX=0.5;entryY=1;entryDx=0;entryDy=0;" edge="1" parent="1" source="Ux6Qge8Gb2Gr5K-9S6YE-39" target="Ux6Qge8Gb2Gr5K-9S6YE-47">
          <mxGeometry relative="1" as="geometry" />
        </mxCell>
        <mxCell id="Ux6Qge8Gb2Gr5K-9S6YE-69" style="edgeStyle=orthogonalEdgeStyle;rounded=0;orthogonalLoop=1;jettySize=auto;html=1;exitX=0.25;exitY=0;exitDx=0;exitDy=0;entryX=1;entryY=0.75;entryDx=0;entryDy=0;entryPerimeter=0;" edge="1" parent="1" source="Ux6Qge8Gb2Gr5K-9S6YE-39" target="Ux6Qge8Gb2Gr5K-9S6YE-46">
          <mxGeometry relative="1" as="geometry" />
        </mxCell>
        <mxCell id="Ux6Qge8Gb2Gr5K-9S6YE-70" style="edgeStyle=orthogonalEdgeStyle;rounded=0;orthogonalLoop=1;jettySize=auto;html=1;exitX=0;exitY=0.5;exitDx=0;exitDy=0;entryX=0.994;entryY=0.29;entryDx=0;entryDy=0;entryPerimeter=0;" edge="1" parent="1" source="Ux6Qge8Gb2Gr5K-9S6YE-39" target="Ux6Qge8Gb2Gr5K-9S6YE-41">
          <mxGeometry relative="1" as="geometry" />
        </mxCell>
        <mxCell id="Ux6Qge8Gb2Gr5K-9S6YE-71" style="edgeStyle=orthogonalEdgeStyle;rounded=0;orthogonalLoop=1;jettySize=auto;html=1;exitX=0.25;exitY=1;exitDx=0;exitDy=0;entryX=1;entryY=0.5;entryDx=0;entryDy=0;" edge="1" parent="1" source="Ux6Qge8Gb2Gr5K-9S6YE-39" target="Ux6Qge8Gb2Gr5K-9S6YE-42">
          <mxGeometry relative="1" as="geometry" />
        </mxCell>
        <mxCell id="Ux6Qge8Gb2Gr5K-9S6YE-72" style="edgeStyle=orthogonalEdgeStyle;rounded=0;orthogonalLoop=1;jettySize=auto;html=1;exitX=0.5;exitY=1;exitDx=0;exitDy=0;entryX=0.578;entryY=-0.055;entryDx=0;entryDy=0;entryPerimeter=0;" edge="1" parent="1" source="Ux6Qge8Gb2Gr5K-9S6YE-39" target="Ux6Qge8Gb2Gr5K-9S6YE-43">
          <mxGeometry relative="1" as="geometry" />
        </mxCell>
        <mxCell id="Ux6Qge8Gb2Gr5K-9S6YE-74" style="edgeStyle=orthogonalEdgeStyle;rounded=0;orthogonalLoop=1;jettySize=auto;html=1;exitX=0.75;exitY=1;exitDx=0;exitDy=0;entryX=0;entryY=0;entryDx=0;entryDy=0;" edge="1" parent="1" source="Ux6Qge8Gb2Gr5K-9S6YE-39" target="Ux6Qge8Gb2Gr5K-9S6YE-44">
          <mxGeometry relative="1" as="geometry" />
        </mxCell>
        <mxCell id="Ux6Qge8Gb2Gr5K-9S6YE-75" style="edgeStyle=orthogonalEdgeStyle;rounded=0;orthogonalLoop=1;jettySize=auto;html=1;exitX=1;exitY=1;exitDx=0;exitDy=0;endArrow=none;endFill=0;" edge="1" parent="1" source="Ux6Qge8Gb2Gr5K-9S6YE-39" target="Ux6Qge8Gb2Gr5K-9S6YE-48">
          <mxGeometry relative="1" as="geometry" />
        </mxCell>
        <mxCell id="Ux6Qge8Gb2Gr5K-9S6YE-77" style="edgeStyle=orthogonalEdgeStyle;rounded=0;orthogonalLoop=1;jettySize=auto;html=1;exitX=0.75;exitY=0;exitDx=0;exitDy=0;" edge="1" parent="1" source="Ux6Qge8Gb2Gr5K-9S6YE-39" target="Ux6Qge8Gb2Gr5K-9S6YE-45">
          <mxGeometry relative="1" as="geometry">
            <Array as="points">
              <mxPoint x="185" y="515" />
              <mxPoint x="270" y="515" />
            </Array>
          </mxGeometry>
        </mxCell>
        <mxCell id="Ux6Qge8Gb2Gr5K-9S6YE-39" value="Paciente" style="whiteSpace=wrap;html=1;align=center;" vertex="1" parent="1">
          <mxGeometry x="110" y="540" width="100" height="40" as="geometry" />
        </mxCell>
        <mxCell id="Ux6Qge8Gb2Gr5K-9S6YE-40" value="Codigo" style="ellipse;whiteSpace=wrap;html=1;align=center;fontStyle=4;" vertex="1" parent="1">
          <mxGeometry x="340" y="450" width="100" height="40" as="geometry" />
        </mxCell>
        <mxCell id="Ux6Qge8Gb2Gr5K-9S6YE-41" value="Nombre" style="ellipse;whiteSpace=wrap;html=1;align=center;" vertex="1" parent="1">
          <mxGeometry x="-30" y="545" width="100" height="40" as="geometry" />
        </mxCell>
        <mxCell id="Ux6Qge8Gb2Gr5K-9S6YE-42" value="Apellidos&lt;span style=&quot;color: rgba(0 , 0 , 0 , 0) ; font-family: monospace ; font-size: 0px&quot;&gt;%3CmxGraphModel%3E%3Croot%3E%3CmxCell%20id%3D%220%22%2F%3E%3CmxCell%20id%3D%221%22%20parent%3D%220%22%2F%3E%3CmxCell%20id%3D%222%22%20value%3D%22Nombre%22%20style%3D%22ellipse%3BwhiteSpace%3Dwrap%3Bhtml%3D1%3Balign%3Dcenter%3B%22%20vertex%3D%221%22%20parent%3D%221%22%3E%3CmxGeometry%20x%3D%22-30%22%20y%3D%22545%22%20width%3D%22100%22%20height%3D%2240%22%20as%3D%22geometry%22%2F%3E%3C%2FmxCell%3E%3C%2Froot%3E%3C%2FmxGraphModel%3E&lt;/span&gt;" style="ellipse;whiteSpace=wrap;html=1;align=center;" vertex="1" parent="1">
          <mxGeometry x="-20" y="610" width="100" height="40" as="geometry" />
        </mxCell>
        <mxCell id="Ux6Qge8Gb2Gr5K-9S6YE-43" value="Direccion" style="ellipse;whiteSpace=wrap;html=1;align=center;" vertex="1" parent="1">
          <mxGeometry x="70" y="690" width="100" height="40" as="geometry" />
        </mxCell>
        <mxCell id="Ux6Qge8Gb2Gr5K-9S6YE-44" value="Municipio" style="ellipse;whiteSpace=wrap;html=1;align=center;" vertex="1" parent="1">
          <mxGeometry x="190" y="690" width="100" height="40" as="geometry" />
        </mxCell>
        <mxCell id="Ux6Qge8Gb2Gr5K-9S6YE-45" value="Departamento" style="ellipse;whiteSpace=wrap;html=1;align=center;" vertex="1" parent="1">
          <mxGeometry x="220" y="450" width="100" height="40" as="geometry" />
        </mxCell>
        <mxCell id="Ux6Qge8Gb2Gr5K-9S6YE-46" value="Codigo Postal" style="ellipse;whiteSpace=wrap;html=1;align=center;" vertex="1" parent="1">
          <mxGeometry x="10" y="480" width="100" height="40" as="geometry" />
        </mxCell>
        <mxCell id="Ux6Qge8Gb2Gr5K-9S6YE-47" value="Telefono" style="ellipse;whiteSpace=wrap;html=1;align=center;" vertex="1" parent="1">
          <mxGeometry x="100" y="450" width="100" height="40" as="geometry" />
        </mxCell>
        <mxCell id="Ux6Qge8Gb2Gr5K-9S6YE-48" value="Fecha Nacimiento" style="ellipse;whiteSpace=wrap;html=1;align=center;" vertex="1" parent="1">
          <mxGeometry x="300" y="680" width="100" height="40" as="geometry" />
        </mxCell>
        <mxCell id="Ux6Qge8Gb2Gr5K-9S6YE-79" style="edgeStyle=orthogonalEdgeStyle;rounded=0;orthogonalLoop=1;jettySize=auto;html=1;exitX=0.25;exitY=0;exitDx=0;exitDy=0;entryX=0;entryY=1;entryDx=0;entryDy=0;" edge="1" parent="1" source="Ux6Qge8Gb2Gr5K-9S6YE-49" target="Ux6Qge8Gb2Gr5K-9S6YE-57">
          <mxGeometry relative="1" as="geometry" />
        </mxCell>
        <mxCell id="Ux6Qge8Gb2Gr5K-9S6YE-80" style="edgeStyle=orthogonalEdgeStyle;rounded=0;orthogonalLoop=1;jettySize=auto;html=1;exitX=0.75;exitY=0;exitDx=0;exitDy=0;entryX=0.5;entryY=1;entryDx=0;entryDy=0;" edge="1" parent="1" source="Ux6Qge8Gb2Gr5K-9S6YE-49" target="Ux6Qge8Gb2Gr5K-9S6YE-57">
          <mxGeometry relative="1" as="geometry" />
        </mxCell>
        <mxCell id="Ux6Qge8Gb2Gr5K-9S6YE-81" style="edgeStyle=orthogonalEdgeStyle;rounded=0;orthogonalLoop=1;jettySize=auto;html=1;exitX=1;exitY=0.75;exitDx=0;exitDy=0;entryX=0;entryY=1;entryDx=0;entryDy=0;" edge="1" parent="1" source="Ux6Qge8Gb2Gr5K-9S6YE-49" target="Ux6Qge8Gb2Gr5K-9S6YE-51">
          <mxGeometry relative="1" as="geometry" />
        </mxCell>
        <mxCell id="Ux6Qge8Gb2Gr5K-9S6YE-82" style="edgeStyle=orthogonalEdgeStyle;rounded=0;orthogonalLoop=1;jettySize=auto;html=1;exitX=1;exitY=1;exitDx=0;exitDy=0;entryX=0;entryY=0.5;entryDx=0;entryDy=0;" edge="1" parent="1" source="Ux6Qge8Gb2Gr5K-9S6YE-49" target="Ux6Qge8Gb2Gr5K-9S6YE-52">
          <mxGeometry relative="1" as="geometry" />
        </mxCell>
        <mxCell id="Ux6Qge8Gb2Gr5K-9S6YE-83" style="edgeStyle=orthogonalEdgeStyle;rounded=0;orthogonalLoop=1;jettySize=auto;html=1;exitX=0.75;exitY=1;exitDx=0;exitDy=0;entryX=0.062;entryY=0.175;entryDx=0;entryDy=0;entryPerimeter=0;" edge="1" parent="1" source="Ux6Qge8Gb2Gr5K-9S6YE-49" target="Ux6Qge8Gb2Gr5K-9S6YE-56">
          <mxGeometry relative="1" as="geometry" />
        </mxCell>
        <mxCell id="Ux6Qge8Gb2Gr5K-9S6YE-84" style="edgeStyle=orthogonalEdgeStyle;rounded=0;orthogonalLoop=1;jettySize=auto;html=1;exitX=0.25;exitY=1;exitDx=0;exitDy=0;entryX=0.5;entryY=0;entryDx=0;entryDy=0;" edge="1" parent="1" source="Ux6Qge8Gb2Gr5K-9S6YE-49" target="Ux6Qge8Gb2Gr5K-9S6YE-60">
          <mxGeometry relative="1" as="geometry" />
        </mxCell>
        <mxCell id="Ux6Qge8Gb2Gr5K-9S6YE-49" value="Medico" style="whiteSpace=wrap;html=1;align=center;" vertex="1" parent="1">
          <mxGeometry x="670" y="580" width="100" height="40" as="geometry" />
        </mxCell>
        <mxCell id="Ux6Qge8Gb2Gr5K-9S6YE-51" value="Nombre" style="ellipse;whiteSpace=wrap;html=1;align=center;" vertex="1" parent="1">
          <mxGeometry x="800" y="545" width="100" height="40" as="geometry" />
        </mxCell>
        <mxCell id="Ux6Qge8Gb2Gr5K-9S6YE-52" value="Apellidos&lt;span style=&quot;color: rgba(0 , 0 , 0 , 0) ; font-family: monospace ; font-size: 0px&quot;&gt;%3CmxGraphModel%3E%3Croot%3E%3CmxCell%20id%3D%220%22%2F%3E%3CmxCell%20id%3D%221%22%20parent%3D%220%22%2F%3E%3CmxCell%20id%3D%222%22%20value%3D%22Nombre%22%20style%3D%22ellipse%3BwhiteSpace%3Dwrap%3Bhtml%3D1%3Balign%3Dcenter%3B%22%20vertex%3D%221%22%20parent%3D%221%22%3E%3CmxGeometry%20x%3D%22-30%22%20y%3D%22545%22%20width%3D%22100%22%20height%3D%2240%22%20as%3D%22geometry%22%2F%3E%3C%2FmxCell%3E%3C%2Froot%3E%3C%2FmxGraphModel%3E&lt;/span&gt;" style="ellipse;whiteSpace=wrap;html=1;align=center;" vertex="1" parent="1">
          <mxGeometry x="840" y="610" width="100" height="40" as="geometry" />
        </mxCell>
        <mxCell id="Ux6Qge8Gb2Gr5K-9S6YE-56" value="Especialidad" style="ellipse;whiteSpace=wrap;html=1;align=center;" vertex="1" parent="1">
          <mxGeometry x="780" y="680" width="100" height="40" as="geometry" />
        </mxCell>
        <mxCell id="Ux6Qge8Gb2Gr5K-9S6YE-57" value="Telefono" style="ellipse;whiteSpace=wrap;html=1;align=center;" vertex="1" parent="1">
          <mxGeometry x="710" y="500" width="100" height="40" as="geometry" />
        </mxCell>
        <mxCell id="Ux6Qge8Gb2Gr5K-9S6YE-60" value="Codigo" style="ellipse;whiteSpace=wrap;html=1;align=center;fontStyle=4;" vertex="1" parent="1">
          <mxGeometry x="660" y="690" width="100" height="40" as="geometry" />
        </mxCell>
        <mxCell id="Ux6Qge8Gb2Gr5K-9S6YE-86" value="" style="line;strokeWidth=1;rotatable=0;dashed=0;labelPosition=right;align=left;verticalAlign=middle;spacingTop=0;spacingLeft=6;points=[];portConstraint=eastwest;" vertex="1" parent="1">
          <mxGeometry x="560" y="510" width="110" height="170" as="geometry" />
        </mxCell>
        <mxCell id="Ux6Qge8Gb2Gr5K-9S6YE-90" value="Associative&#xa;Entity" style="shape=associativeEntity;whiteSpace=wrap;html=1;align=center;" vertex="1" parent="1">
          <mxGeometry x="440" y="565" width="140" height="60" as="geometry" />
        </mxCell>
        <mxCell id="Ux6Qge8Gb2Gr5K-9S6YE-91" value="Habitacion" style="ellipse;whiteSpace=wrap;html=1;align=center;" vertex="1" parent="1">
          <mxGeometry x="500" y="720" width="100" height="40" as="geometry" />
        </mxCell>
        <mxCell id="Ux6Qge8Gb2Gr5K-9S6YE-94" value="CodigoDoctor" style="ellipse;whiteSpace=wrap;html=1;align=center;" vertex="1" parent="1">
          <mxGeometry x="380" y="730" width="100" height="40" as="geometry" />
        </mxCell>
        <mxCell id="Ux6Qge8Gb2Gr5K-9S6YE-95" value="CodigoPaciente" style="ellipse;whiteSpace=wrap;html=1;align=center;" vertex="1" parent="1">
          <mxGeometry x="610" y="760" width="100" height="40" as="geometry" />
        </mxCell>
        <mxCell id="Ux6Qge8Gb2Gr5K-9S6YE-110" value="" style="endArrow=none;html=1;rounded=0;exitX=0;exitY=0.5;exitDx=0;exitDy=0;entryX=1;entryY=0.75;entryDx=0;entryDy=0;" edge="1" parent="1" source="Ux6Qge8Gb2Gr5K-9S6YE-90" target="Ux6Qge8Gb2Gr5K-9S6YE-39">
          <mxGeometry relative="1" as="geometry">
            <mxPoint x="470" y="580" as="sourcePoint" />
            <mxPoint x="630" y="580" as="targetPoint" />
          </mxGeometry>
        </mxCell>
        <mxCell id="Ux6Qge8Gb2Gr5K-9S6YE-111" value="1" style="resizable=0;html=1;align=right;verticalAlign=bottom;" connectable="0" vertex="1" parent="Ux6Qge8Gb2Gr5K-9S6YE-110">
          <mxGeometry x="1" relative="1" as="geometry" />
        </mxCell>
      </root>
    </mxGraphModel>
  </diagram>
</mxfile>
